<?xml version="1.0" encoding="utf-8" ?><svg xmlns="http://www.w3.org/2000/svg" xmlns:xlink="http://www.w3.org/1999/xlink" width="1024" height="1024" viewBox="0 0 1024 1024"><path fill="#E2E2E2" d="M0 0L1024 0L1024 1024L0 1024L0 0ZM407.665 146.54C395.543 146.003 378.417 147.548 366.365 149.463C315.693 157.407 268.541 180.285 230.94 215.17C192.975 249.5 166.218 294.459 154.149 344.201C151.768 355.221 148.855 369.132 148.301 380.471C147.107 404.88 147.525 430.396 147.521 454.884L147.452 559.856L147.358 689.832C147.345 711.787 146.672 737.409 147.503 759.021C146.348 797.465 147.433 839.339 147.227 878.143C149.981 879.178 212.188 878.477 218.842 878.483L385.25 878.423C419.444 878.432 453.687 878.641 487.877 878.352C498.28 878.264 510.48 877.789 520.848 876.929C552.887 874.041 584.493 867.509 615.052 857.46C672.693 837.654 725.123 805.1 768.437 762.222C829.665 701.322 867.735 620.974 876.087 535.021C878.608 508.218 877.605 472.26 877.599 444.595L877.525 318.38L790.428 430.219L757.027 473.652C750.552 482.077 742.516 493.219 735.387 500.706C726.871 509.565 716.977 516.985 706.088 522.678C661.621 546.459 614.609 537.845 566.287 539.329C488.009 541.787 414.347 579.733 359.415 634.263C337.943 655.579 319.681 679.972 299.069 701.571L298.868 691.357C299.728 630.62 298.996 568.25 298.964 507.428L298.948 462.177C298.947 447.535 298.334 431.394 301.453 417.18C305.412 398.995 314.612 382.368 327.916 369.353C341.757 355.663 359.394 346.45 378.538 342.912C390.317 340.708 412.006 341.468 424.781 341.495L495.207 341.582L730.179 341.73L878.493 146.112L564.617 146.439L467.424 146.419C447.708 146.397 427.339 146.14 407.665 146.54ZM337.963 388.513C347.672 409.662 358.762 430.357 368.633 451.452C376.617 468.512 385.896 485.427 393.553 502.601C405.864 502.621 418.614 502.809 430.89 502.621L477.506 406.787L486.336 388.621L453.584 388.494C449.103 397.896 415.509 471.879 411.882 474.272L411.67 474.304C407.605 467.467 401.787 453.47 398.152 445.619C389.183 426.668 380.408 407.626 371.828 388.496L337.963 388.513ZM594.44 388.7C585.203 389.725 577.362 392.389 571.353 400.028C560.572 413.732 562.569 439.058 576.863 449.782C591.662 460.99 611.874 456.526 629.163 457.254C635.259 457.512 640.6 456.468 646.714 458.228C656.738 461.113 653.525 475.626 644.26 475.923C636.511 476.171 628.417 475.931 620.592 475.93C602.41 475.991 584.228 475.949 566.046 475.805L565.978 502.68L622.332 502.541C629.05 502.551 648.403 502.982 653.878 501.83C663.913 499.226 671.919 494.756 677.3 485.529C686.75 469.322 682.52 446.077 665.651 436.427C650.858 427.965 630.168 432.199 613.699 431.346C607.235 431.011 595.859 433.569 593.264 425.21C592.015 420.407 594.609 414.895 600.126 414.482C608.361 413.867 616.826 414.117 625.133 414.104L679.974 414.071L680.028 388.582L623.505 388.5C615.067 388.499 602.402 388.101 594.44 388.7Z"/><defs><linearGradient id="gradient_0" gradientUnits="userSpaceOnUse" x1="554.99438" y1="524.51855" x2="362.68958" y2="184.50369"><stop offset="0" stop-color="#56796B"/><stop offset="1" stop-color="#15F1AC"/></linearGradient></defs><path fill="url(#gradient_0)" d="M407.665 146.54C427.339 146.14 447.708 146.397 467.424 146.419L564.617 146.439L878.493 146.112L730.179 341.73L495.207 341.582L424.781 341.495C412.006 341.468 390.317 340.708 378.538 342.912C359.394 346.45 341.757 355.663 327.916 369.353C314.612 382.368 305.412 398.995 301.453 417.18C298.334 431.394 298.947 447.535 298.948 462.177L298.964 507.428C298.996 568.25 299.728 630.62 298.868 691.357C297.275 689.166 298.744 674.52 297.717 670.647L297.111 670.418L296.162 671.774C293.535 671.774 295.424 671.061 294.184 671.078C291.998 671.108 289.052 672.513 286.862 673.181C281.625 674.777 276.371 679.323 271.528 681.799C268.736 683.227 263.88 684.274 260.692 685.507C257.323 686.81 255.307 688.038 252.19 689.54C248.725 691.209 243.018 692.795 239.708 694.591C228.11 700.884 216.67 707.125 205.604 714.345C202.049 716.666 196.9 718.656 193.048 720.844C190.027 722.56 188.461 723.61 185.758 725.782C184.723 726.614 179.146 727.952 178.079 728.712C175.774 730.353 174.582 731.283 171.913 732.96C165.577 736.941 155.539 741.571 149.996 746.19C148.796 747.19 147.73 758.542 147.503 759.021C146.672 737.409 147.345 711.787 147.358 689.832L147.452 559.856L147.521 454.884C147.525 430.396 147.107 404.88 148.301 380.471C148.855 369.132 151.768 355.221 154.149 344.201L155.227 345.227C157.787 344.314 156.429 341.669 157.924 340.051C162.835 338.761 168.265 330.912 171.257 326.732C173.519 323.571 180.557 325.047 183.431 323.608C188.986 320.826 193.609 316.479 198.773 313.1C200.34 312.003 205.127 311.38 206.385 310.312C211.448 306.015 216.893 301.936 222.16 297.879C225.287 295.471 230.592 294.138 233.961 291.86C241.955 286.456 249.337 280.329 257.137 274.683C264.644 269.557 273.764 264.823 281.571 260.183C284.696 258.327 290.309 251.71 293.563 249.449C297.544 246.682 302.793 244.459 307.052 242.042C311.657 239.429 316.427 235.939 321.04 233.244C325.019 231.117 328.403 225.666 332.709 224.725C351.77 220.558 367.812 205.619 384.703 196.212C387.627 194.584 391.502 190.456 394.665 188.378C400.004 184.868 404.898 180.579 410.268 177.069C412.03 175.857 415.798 171.38 418.076 169.726C423.937 165.471 429.009 160.739 433.972 155.486C435.033 154.363 434.273 152.338 435.087 151.006C435.523 150.292 437.994 149.86 438.963 149.619L438.868 149.049C432.87 145.353 414.522 148.998 407.665 146.54Z"/><path fill="#17EBA4" d="M154.149 344.201C166.218 294.459 192.975 249.5 230.94 215.17C268.541 180.285 315.693 157.407 366.365 149.463C378.417 147.548 395.543 146.003 407.665 146.54C414.522 148.998 432.87 145.353 438.868 149.049L438.963 149.619C437.994 149.86 435.523 150.292 435.087 151.006C434.273 152.338 435.033 154.363 433.972 155.486C429.009 160.739 423.937 165.471 418.076 169.726C415.798 171.38 412.03 175.857 410.268 177.069C404.898 180.579 400.004 184.868 394.665 188.378C391.502 190.456 387.627 194.584 384.703 196.212C367.812 205.619 351.77 220.558 332.709 224.725C328.403 225.666 325.019 231.117 321.04 233.244C316.427 235.939 311.657 239.429 307.052 242.042C302.793 244.459 297.544 246.682 293.563 249.449C290.309 251.71 284.696 258.327 281.571 260.183C273.764 264.823 264.644 269.557 257.137 274.683C249.337 280.329 241.955 286.456 233.961 291.86C230.592 294.138 225.287 295.471 222.16 297.879C216.893 301.936 211.448 306.015 206.385 310.312C205.127 311.38 200.34 312.003 198.773 313.1C193.609 316.479 188.986 320.826 183.431 323.608C180.557 325.047 173.519 323.571 171.257 326.732C168.265 330.912 162.835 338.761 157.924 340.051C156.429 341.669 157.787 344.314 155.227 345.227L154.149 344.201Z"/><defs><linearGradient id="gradient_1" gradientUnits="userSpaceOnUse" x1="529.69904" y1="845.13177" x2="601.00647" y2="285.46304"><stop offset="0" stop-color="#D6253A"/><stop offset="1" stop-color="#F257A8"/></linearGradient></defs><path fill="url(#gradient_1)" d="M299.069 701.571C319.681 679.972 337.943 655.579 359.415 634.263C414.347 579.733 488.009 541.787 566.287 539.329C614.609 537.845 661.621 546.459 706.088 522.678C716.977 516.985 726.871 509.565 735.387 500.706C742.516 493.219 750.552 482.077 757.027 473.652L790.428 430.219L877.525 318.38L877.599 444.595C877.605 472.26 878.608 508.218 876.087 535.021C867.735 620.974 829.665 701.322 768.437 762.222C725.123 805.1 672.693 837.654 615.052 857.46L615.092 855.839L614.665 855.58L614.381 855.829C612.939 855.282 611.483 854.773 610.015 854.3C605.729 852.926 605.155 850.931 602.316 846.992C599.744 846.41 600.786 846.274 598.422 847.531C596.798 846.708 596.282 844.821 594.883 843.742C594.004 843.066 592.937 843.093 592.128 842.384C591.254 841.618 586.786 842.146 585.162 841.521C582.285 840.414 581.088 837.07 578.242 836.206C576.508 835.679 554.352 834.11 551.907 834.147C547.929 834.207 542.89 835.191 539.024 834.458C530.427 832.827 521.848 833.553 513.205 833.973C511.782 834.042 509.246 833.792 507.952 834.204C507.124 834.468 506.176 835.416 505.269 835.785C504.619 836.049 504.856 836.063 504.357 835.829L504.315 833.9C503.554 833.154 488.001 835.934 485.203 830.528C486.884 833.776 475.762 819.866 478.595 822.408C475.313 821.651 472.816 823.02 470.283 822.748C465.296 822.213 463.03 820.767 457.613 821.28C456.868 822.274 456.908 822.297 456.54 823.464L455.727 823.34C455.79 822.062 455.927 822.517 455.39 821.446C452.725 821.22 451.68 824.396 448.253 823.209L448.276 821.619C440.385 818.451 437.706 822.988 430.082 821.656C430.182 821.673 424.962 824.154 424.45 824.394C420.368 823.657 416.435 819.505 411.954 819.201C402.939 818.589 404.881 819.704 398.059 814.348L397.224 814.509C396.708 815.936 396.702 816.16 395.801 817.425C394.312 817.627 395.017 817.736 393.63 817.001L393.402 815.067C381.892 806.639 355.728 811.096 342.148 810.11C333.965 809.515 324.777 806.269 316.24 806.32C310.568 805.91 286.202 807.219 281.933 804.617C271.776 798.428 256.399 799.425 247.806 795.532C246.861 794.041 247.215 794.185 247.323 792.005C244.922 790.262 244.236 788.08 241.696 786.283C239.691 784.608 236.082 784.837 234.169 783.486C232.947 782.623 232.604 781.622 230.782 781.047C232.27 778.932 234.447 776.646 236.194 774.709C250.956 758.335 264.954 741.329 279.262 724.564C285.825 716.874 293.119 709.77 299.069 701.571ZM580.053 835.586C580.359 836.151 580.664 836.716 580.97 837.28C584.658 838.777 588.932 840.053 592.699 841.242C594.212 841.72 595.492 841.832 596.572 841.83C594.988 836.805 583.327 837.222 580.053 835.586Z"/><path d="M393.553 502.601C385.896 485.427 376.617 468.512 368.633 451.452C358.762 430.357 347.672 409.662 337.963 388.513L371.828 388.496C380.408 407.626 389.183 426.668 398.152 445.619C401.787 453.47 407.605 467.467 411.67 474.304L411.882 474.272C415.509 471.879 449.103 397.896 453.584 388.494L486.336 388.621L477.506 406.787L430.89 502.621C418.614 502.809 405.864 502.621 393.553 502.601Z"/><path d="M566.046 475.805C584.228 475.949 602.41 475.991 620.592 475.93C628.417 475.931 636.511 476.171 644.26 475.923C653.525 475.626 656.738 461.113 646.714 458.228C640.6 456.468 635.259 457.512 629.163 457.254C611.874 456.526 591.662 460.99 576.863 449.782C562.569 439.058 560.572 413.732 571.353 400.028C577.362 392.389 585.203 389.725 594.44 388.7C602.402 388.101 615.067 388.499 623.505 388.5L680.028 388.582L679.974 414.071L625.133 414.104C616.826 414.117 608.361 413.867 600.126 414.482C594.609 414.895 592.015 420.407 593.264 425.21C595.859 433.569 607.235 431.011 613.699 431.346C630.168 432.199 650.858 427.965 665.651 436.427C682.52 446.077 686.75 469.322 677.3 485.529C671.919 494.756 663.913 499.226 653.878 501.83C648.403 502.982 629.05 502.551 622.332 502.541L565.978 502.68L566.046 475.805Z"/><path fill="#61685C" d="M147.503 759.021C147.73 758.542 148.796 747.19 149.996 746.19C155.539 741.571 165.577 736.941 171.913 732.96C174.582 731.283 175.774 730.353 178.079 728.712C179.146 727.952 184.723 726.614 185.758 725.782C188.461 723.61 190.027 722.56 193.048 720.844C196.9 718.656 202.049 716.666 205.604 714.345C216.67 707.125 228.11 700.884 239.708 694.591C243.018 692.795 248.725 691.209 252.19 689.54C255.307 688.038 257.323 686.81 260.692 685.507C263.88 684.274 268.736 683.227 271.528 681.799C276.371 679.323 281.625 674.777 286.862 673.181C289.052 672.513 291.998 671.108 294.184 671.078C295.424 671.061 293.535 671.774 296.162 671.774L297.111 670.418L297.717 670.647C298.744 674.52 297.275 689.166 298.868 691.357L299.069 701.571C293.119 709.77 285.825 716.874 279.262 724.564C264.954 741.329 250.956 758.335 236.194 774.709C234.447 776.646 232.27 778.932 230.782 781.047L180.496 839.468C170.666 851.092 157.642 867.437 147.227 878.143C147.433 839.339 146.348 797.465 147.503 759.021Z"/><path fill="#D41152" d="M147.227 878.143C157.642 867.437 170.666 851.092 180.496 839.468L230.782 781.047C232.604 781.622 232.947 782.623 234.169 783.486C236.082 784.837 239.691 784.608 241.696 786.283C244.236 788.08 244.922 790.262 247.323 792.005C247.215 794.185 246.861 794.041 247.806 795.532C256.399 799.425 271.776 798.428 281.933 804.617C286.202 807.219 310.568 805.91 316.24 806.32C324.777 806.269 333.965 809.515 342.148 810.11C355.728 811.096 381.892 806.639 393.402 815.067L393.63 817.001C395.017 817.736 394.312 817.627 395.801 817.425C396.702 816.16 396.708 815.936 397.224 814.509L398.059 814.348C404.881 819.704 402.939 818.589 411.954 819.201C416.435 819.505 420.368 823.657 424.45 824.394C424.962 824.154 430.182 821.673 430.082 821.656C437.706 822.988 440.385 818.451 448.276 821.619L448.253 823.209C451.68 824.396 452.725 821.22 455.39 821.446C455.927 822.517 455.79 822.062 455.727 823.34L456.54 823.464C456.908 822.297 456.868 822.274 457.613 821.28C463.03 820.767 465.296 822.213 470.283 822.748C472.816 823.02 475.313 821.651 478.595 822.408C475.762 819.866 486.884 833.776 485.203 830.528C488.001 835.934 503.554 833.154 504.315 833.9L504.357 835.829C504.856 836.063 504.619 836.049 505.269 835.785C506.176 835.416 507.124 834.468 507.952 834.204C509.246 833.792 511.782 834.042 513.205 833.973C521.848 833.553 530.427 832.827 539.024 834.458C542.89 835.191 547.929 834.207 551.907 834.147C554.352 834.11 576.508 835.679 578.242 836.206C581.088 837.07 582.285 840.414 585.162 841.521C586.786 842.146 591.254 841.618 592.128 842.384C592.937 843.093 594.004 843.066 594.883 843.742C596.282 844.821 596.798 846.708 598.422 847.531C600.786 846.274 599.744 846.41 602.316 846.992C605.155 850.931 605.729 852.926 610.015 854.3C611.483 854.773 612.939 855.282 614.381 855.829L614.665 855.58L615.092 855.839L615.052 857.46C584.493 867.509 552.887 874.041 520.848 876.929C510.48 877.789 498.28 878.264 487.877 878.352C453.687 878.641 419.444 878.432 385.25 878.423L218.842 878.483C212.188 878.477 149.981 879.178 147.227 878.143Z"/><path fill="#D41152" d="M596.572 841.83C595.492 841.832 594.212 841.72 592.699 841.242C588.932 840.053 584.658 838.777 580.97 837.28C580.664 836.716 580.359 836.151 580.053 835.586C583.327 837.222 594.988 836.805 596.572 841.83Z"/></svg>